<svg xmlns="http://www.w3.org/2000/svg" version="1.1" xmlns:xlink="http://www.w3.org/1999/xlink" width="140.94" height="198.53"><svg id="SvgjsSvg1028" data-name="katman 2" xmlns="http://www.w3.org/2000/svg" viewBox="0 0 140.94 198.53">
  <defs>
    <style>
      .cls-1 {
        fill: #fa8a24;
      }

      .cls-2 {
        fill: #00a0d8;
      }
    </style>
  </defs>
  <g id="SvgjsG1027" data-name="katman 1">
    <g>
      <path class="cls-1" d="M57.22,196.78c.91.21,1.82.37,2.74.51.1-.03.21-.04.34-.04.92.03,1.81.2,2.71.32,3.55-.54,7.09-1.21,10.64-1.75,3.58-.54,7.28-1.1,10.7-2.34,2.65-1.32,4.88-3.26,7.42-4.76,2.31-1.37,4.93-2.16,7.17-3.64.02-.02.05-.04.07-.06.2-.26.42-.51.67-.74.4-.4.79-.79,1.19-1.19.28-.28.58-.53.9-.76.3-.42.61-.84.89-1.27.11-.73.37-1.42.78-2.07.06-.11.12-.21.17-.32.01-.03.02-.06.03-.09.32-1.13.88-2.12,1.67-2.97.09-.55.27-1.07.53-1.57.25-.75.64-1.42,1.19-2-.2-.63-.32-1.3-.35-1.98-.02-.52.02-1.03.13-1.52-.01,0-.02,0-.04.01l-.22.44c-3.04,3.37-7.79,5.73-12.21,6.6-4.38.86-8.97.56-13.26-.62-2.3-.63-4.54-1.52-6.64-2.65-19.2-10.34-25.37-34.17-18.91-54.07,3.66-11.29,10.91-20.06,18.23-29.12,8.79-10.88,20.21-22.69,24.08-36.45,2.92-10.37.92-21.46-4.1-30.85C89.21,13.28,80.87,3.17,71.23.23c-1.97-.6-3.94-.04-4.68,2.04-.43,1.21-.35,2.53-.31,3.81.33,13.17-5.69,25.63-14.2,35.39-10.24,11.74-21.39,22.6-31.34,34.65C3.77,96.61-5.02,124.62,3,150.74c.06.21.13.4.19.6.96,3.1,1.93,6.11,3.51,8.96,8.87,16.04,24,27.97,41.23,33.94.74.26,1.48.5,2.22.72,2.05.63,4.12,1.15,6.21,1.63.29.07.58.13.86.19Z"></path>
      <path class="cls-2" d="M133.31,106.03c-6.73-12.96-16.37-24.04-24.95-35.76-1.23-1.68-2.65-4.11-4.73-4.69-1.91-.1-3.47,1.78-4.4,3.27-5.22,8.35-11.79,15.87-17.69,23.73-6.25,8.33-12.47,16.78-15.65,26.83-3.21,10.13-2.83,21.62,1.95,31.19,2.06,4.13,4.9,8.12,8.52,11.02,2.48,1.99,5.34,3.59,8.27,4.81,3.1,1.29,10.63,4.33,21.95,2.54.23.1-1.44,3.18-1.62,3.5-6,10.88-18.08,19.08-30.02,21.81-.37.09-.75.14-1.12.22-2.51.55-5.07.87-7.63,1.03s-5.19.15-7.79.06c-1.29-.05-2.58-.12-3.87-.21-.83-.06-1.66-.13-2.49-.21-.42-.04-.84-.09-1.26-.13-.21-.02-.41-.07-.62-.09-.02,0,4.13,1.32,5.44,1.62.34.08.69.16,1.03.23,2.61.57,5.23,1,7.89,1.28s5.34.43,8.02.44,5.35-.12,8.01-.39c.25-.03.5-.05.76-.08,4.92-.55,9.78-1.59,14.46-3.19,8.15-2.78,15.83-7.07,22.43-12.61,10.63-8.92,18.47-21.09,21.45-34.71,3.13-14.34.38-28.61-6.34-41.53Z"></path>
    </g>
  </g>
</svg><style>@media (prefers-color-scheme: light) { :root { filter: none; } }
@media (prefers-color-scheme: dark) { :root { filter: none; } }
</style></svg>